inDegrees=yes
name=ik_S42_A10_T02
DataType=double
version=3
OpenSimVersion=4.3-2021-08-27-4bc7ad9
endheader
time	pelvis_tilt	pelvis_list	pelvis_rotation	pelvis_tx	pelvis_ty	pelvis_tz	hip_flexion_r	hip_adduction_r	hip_rotation_r	knee_angle_r	knee_angle_r_beta	ankle_angle_r	subtalar_angle_r	mtp_angle_r	hip_flexion_l	hip_adduction_l	hip_rotation_l	knee_angle_l	knee_angle_l_beta	ankle_angle_l	subtalar_angle_l	mtp_angle_l	lumbar_extension	lumbar_bending	lumbar_rotation	arm_flex_r	arm_add_r	arm_rot_r	elbow_flex_r	pro_sup_r	wrist_flex_r	wrist_dev_r	arm_flex_l	arm_add_l	arm_rot_l	elbow_flex_l	pro_sup_l	wrist_flex_l	wrist_dev_l
15.55999999999976	-0.6429180652783547	1.19676918267827	29.326966957246	0	0.9399999999999999	0	44.98895554816662	-9.999999964297521	-9.999995534109544	54.96673121634326	0.9593504387839374	0	0	0	44.98895554816662	-9.999999964297521	-9.999995534109544	54.96673121634326	0.9593504387839374	0	0	0	0.03480816753031939	0.9950398512856465	1.388482773714956	40.16845344371442	-11.85542761681777	20.38442282931316	49.10193677628993	59.10783660518504	0	0	32.54428960248978	2.352571238368296	-2.653365852910488	37.19413867674057	80.64039194023302	0	0
15.57999999999976	-0.8292833948359588	1.059329776853176	29.24100935752261	0	0.9399999999999999	0	44.98911404685526	-9.999999965123136	-9.999995646825971	54.96715396528006	0.959357817144794	0	0	0	44.98911404685526	-9.999999965123136	-9.999995646825971	54.96715396528006	0.959357817144794	0	0	0	-0.1863151969696014	0.939252430441694	1.644271232549643	38.2939383191712	-10.5208608503328	19.66292207939203	45.54755841623246	59.57137670760655	0	0	28.04472964121542	3.798518830864218	-0.239335141218904	35.64382266006948	78.00424780140698	0	0
15.59999999999976	-0.8268723554957202	1.057279651402296	29.25312351543583	0	0.9399999999999999	0	44.98919378618741	-9.999999965535528	-9.999995703381222	54.96736457372155	0.9593614929555303	0	0	0	44.98919378618741	-9.999999965535528	-9.999995703381222	54.96736457372155	0.9593614929555303	0	0	0	-0.185746807770924	0.9399906777028546	1.638538775659666	36.06253780989128	-8.59396722669354	18.84160890478274	41.60682183870114	61.05678330120061	0	0	26.45832234396006	4.535621626268036	-0.1360447644919873	34.81035525711123	77.55943425007307	0	0
15.61999999999976	-0.8049855958615111	1.032656627553489	29.23362918337824	0	0.9399999999999999	0	44.98918720152643	-9.999999965535929	-9.999995701416731	54.96733920798429	0.959361050239898	0	0	0	44.98918720152643	-9.999999965535929	-9.999995701416731	54.96733920798429	0.959361050239898	0	0	0	-0.2034130541978378	0.9679712263018667	1.660944498342271	34.36023718239201	-7.648343194763184	18.52402671187095	40.21345788973292	62.22496042614865	0	0	25.1859439197145	5.514691626943384	-1.487337803789051	26.68284016085324	78.72105196946752	0	0
15.63999999999976	-0.9372950745442749	0.8576773981408439	29.41045036064073	0	0.9399999999999999	0	44.98912186151043	-9.999999965249918	-9.999995659163568	54.96715456116381	0.9593578275449273	0	0	0	44.98912186151043	-9.999999965249918	-9.999995659163568	54.96715456116381	0.9593578275449273	0	0	0	-0.4109452606400922	0.8889319240265977	1.883923174459669	34.51721521271007	-7.356654808386108	17.86161205548873	36.57937218276719	63.45712693358777	0	0	24.5447494062885	5.853483925764712	-1.637342250859364	23.35969924687954	81.34943363370849	0	0
15.65999999999976	-0.9614689953705672	0.8440285520214051	29.62595014481663	0	0.9399999999999999	0	44.98913180230391	-9.999999965324463	-9.999995668065253	54.96717469948968	0.9593581790250195	0	0	0	44.98913180230391	-9.999999965324463	-9.999995668065253	54.96717469948968	0.9593581790250195	0	0	0	-0.4417896660263263	0.8999548064587991	1.81109396267263	33.24858192678607	-6.904292927370768	18.08431712886791	34.22478177079211	64.26624897441293	0	0	24.63605773763458	6.029429038059258	-2.090290559605411	19.66611064930543	83.23884382118119	0	0
15.67999999999975	-1.003863564819656	0.8188313015645707	29.60990526795707	0	0.9399999999999999	0	44.98911102371772	-9.999999965246191	-9.999995655636148	54.96711254934888	0.959357094300432	0	0	0	44.98911102371772	-9.999999965246191	-9.999995655636148	54.96711254934888	0.959357094300432	0	0	0	-0.4928729546430445	0.902231393176309	1.865093527285574	32.32460460961714	-6.124991181589702	18.65269778046829	32.06902917601811	64.55020126004709	0	0	23.84608287195413	6.117529404620673	-1.927128589234201	17.99826464483483	83.85550516420273	0	0
15.69999999999975	-1.066772907206542	0.7816537131497737	29.71182395403196	0	0.9399999999999999	0	44.9891168878356	-9.999999965290076	-9.999995660880835	54.96712445469041	0.9593573020878403	0	0	0	44.9891168878356	-9.999999965290076	-9.999995660880835	54.96712445469041	0.9593573020878403	0	0	0	-0.5655104752001049	0.9004440764886565	1.79485320927525	31.70266127681957	-5.490263896183206	19.48291810531414	30.51459981947899	64.08289911581221	0	0	23.35992289774887	6.094781076626545	-1.200353119323117	18.03748245897437	83.23574629952631	0	0
15.71999999999975	-1.065908294572026	0.7821442574610949	29.81031592381203	0	0.9399999999999999	0	44.98912228148951	-9.999999965330346	-9.999995665698201	54.96713541811184	0.9593574934356416	0	0	0	44.98912228148951	-9.999999965330346	-9.999995665698201	54.96713541811184	0.9593574934356416	0	0	0	-0.563883501166458	0.9007528853021022	1.701713990369925	31.1311079123989	-5.067644033210891	20.41558111209318	29.46911025521852	63.39055569774762	0	0	22.89631126743296	6.165850868966055	-0.6718405975852904	17.40274272452581	82.6711246351647	0	0
